<svg xmlns="http://www.w3.org/2000/svg" width="1440" height="1000" viewBox="0 0 1440 1000">
  <title>Snail Mail Trail - Club detail</title>
  <rect width="1440" height="1000" fill="#f4f4f3"/>
  <g id="header">
  <rect x="0" y="0" width="1440" height="68" rx="0" fill="#ffffff"/>
  <line x1="0" y1="68" x2="1440" y2="68" stroke="#d8d8d8" stroke-width="1"/>
  <circle cx="46" cy="34" r="11" fill="none" stroke="#1a1a1a" stroke-width="1.6"/>
  <path d="M40 34 a6 6 0 0 1 12 0 a3.2 3.2 0 0 1 -6.4 0" fill="none" stroke="#1a1a1a" stroke-width="1.5" stroke-linecap="round"/>
  <text x="68" y="39" font-family="Inter, Helvetica, Arial, sans-serif" font-size="16" font-weight="700" fill="#1a1a1a">Snail Mail Trail</text>
  <text x="1140" y="39" font-family="Inter, Helvetica, Arial, sans-serif" font-size="13" font-weight="500" fill="#1a1a1a">Browse</text>
  <text x="1210" y="39" font-family="Inter, Helvetica, Arial, sans-serif" font-size="13" font-weight="500" fill="#1a1a1a">Submit a club</text>
  <rect x="1316" y="18" width="84" height="32" rx="5" fill="#ffffff" stroke="#d8d8d8" stroke-width="1"/>
  <text x="1358.0" y="38.5" font-family="Inter, Helvetica, Arial, sans-serif" font-size="13" font-weight="600" fill="#1a1a1a" text-anchor="middle">Sign in</text>
  </g>
  <g id="detail">
  <text x="40" y="108" font-family="Inter, Helvetica, Arial, sans-serif" font-size="11.5" font-weight="400" fill="#6b6b6b">Browse  /  United States  /  Ohio  /  Columbus Postcard Swap</text>
  <rect x="40" y="132" width="880" height="300" rx="6" fill="#ffffff" stroke="#d8d8d8" stroke-width="1"/>
  <text x="72" y="180" font-family="Inter, Helvetica, Arial, sans-serif" font-size="28" font-weight="700" fill="#1a1a1a">Columbus Postcard Swap</text>
  <text x="72" y="208" font-family="Inter, Helvetica, Arial, sans-serif" font-size="13.5" font-weight="400" fill="#6b6b6b">Columbus, Ohio, United States</text>
  <rect x="72" y="228" width="76.8" height="24" rx="12" fill="#ebebea"/>
  <text x="110.4" y="244" font-family="Inter, Helvetica, Arial, sans-serif" font-size="11" font-weight="500" fill="#6b6b6b" text-anchor="middle">Postcard</text>
  <rect x="156.8" y="228" width="136.2" height="24" rx="12" fill="#ebebea"/>
  <text x="224.9" y="244" font-family="Inter, Helvetica, Arial, sans-serif" font-size="11" font-weight="500" fill="#6b6b6b" text-anchor="middle">Beginner friendly</text>
  <line x1="72" y1="272" x2="888" y2="272" stroke="#d8d8d8" stroke-width="1"/>
  <text x="72" y="302" font-family="Inter, Helvetica, Arial, sans-serif" font-size="12" font-weight="600" fill="#6b6b6b">About this club</text>
  <rect x="72" y="318" width="816" height="6" rx="3" fill="#ebebea"/>
  <rect x="72" y="333" width="816" height="6" rx="3" fill="#ebebea"/>
  <rect x="72" y="348" width="816" height="6" rx="3" fill="#ebebea"/>
  <rect x="72" y="363" width="448.8" height="6" rx="3" fill="#ebebea"/>
  <rect x="72" y="384" width="308.0" height="6" rx="3" fill="#ebebea"/>
  <rect x="40" y="456" width="880" height="196" rx="6" fill="#ffffff" stroke="#d8d8d8" stroke-width="1"/>
  <text x="72" y="494" font-family="Inter, Helvetica, Arial, sans-serif" font-size="12" font-weight="600" fill="#6b6b6b">Cost</text>
  <text x="72" y="532" font-family="Inter, Helvetica, Arial, sans-serif" font-size="30" font-weight="700" fill="#1a1a1a">$5.00</text>
  <text x="150" y="532" font-family="Inter, Helvetica, Arial, sans-serif" font-size="14" font-weight="400" fill="#6b6b6b">per month</text>
  <line x1="72" y1="560" x2="888" y2="560" stroke="#d8d8d8" stroke-width="1" stroke-dasharray="3 3"/>
  <text x="72" y="590" font-family="Inter, Helvetica, Arial, sans-serif" font-size="11.5" font-weight="400" fill="#6b6b6b">Compared in search as</text>
  <text x="212" y="590" font-family="Inter, Helvetica, Arial, sans-serif" font-size="11.5" font-weight="700" fill="#1a1a1a">$5.00 / month</text>
  <text x="72" y="614" font-family="ui-monospace, SFMono-Regular, Menlo, monospace" font-size="10.5" font-weight="500" fill="#b4530a">price.usd_monthly_cents = 500</text>
  <text x="72" y="636" font-family="Inter, Helvetica, Arial, sans-serif" font-size="10.5" font-weight="400" fill="#a8a8a8">Charged in USD, so no conversion applies here.</text>
  <rect x="40" y="676" width="880" height="120" rx="6" fill="#ffffff" stroke="#d8d8d8" stroke-width="1"/>
  <text x="72" y="714" font-family="Inter, Helvetica, Arial, sans-serif" font-size="12" font-weight="600" fill="#6b6b6b">Where it posts from</text>
  <text x="72" y="744" font-family="Inter, Helvetica, Arial, sans-serif" font-size="14" font-weight="600" fill="#1a1a1a">Columbus, Ohio, US</text>
  <text x="72" y="770" font-family="Inter, Helvetica, Arial, sans-serif" font-size="11.5" font-weight="400" fill="#6b6b6b">Does not ship worldwide</text>
  <rect x="952" y="132" width="448" height="300" rx="6" fill="#ffffff" stroke="#d8d8d8" stroke-width="1"/>
  <rect x="969" y="149" width="414" height="200" rx="4" fill="#eef0ee" stroke="#d8d8d8" stroke-width="1"/>
  <line x1="969" y1="149" x2="969" y2="349" stroke="#e2e5e2" stroke-width="1"/>
  <line x1="1039" y1="149" x2="1039" y2="349" stroke="#e2e5e2" stroke-width="1"/>
  <line x1="1109" y1="149" x2="1109" y2="349" stroke="#e2e5e2" stroke-width="1"/>
  <line x1="1179" y1="149" x2="1179" y2="349" stroke="#e2e5e2" stroke-width="1"/>
  <line x1="1249" y1="149" x2="1249" y2="349" stroke="#e2e5e2" stroke-width="1"/>
  <line x1="1319" y1="149" x2="1319" y2="349" stroke="#e2e5e2" stroke-width="1"/>
  <line x1="969" y1="149" x2="1383" y2="149" stroke="#e2e5e2" stroke-width="1"/>
  <line x1="969" y1="219" x2="1383" y2="219" stroke="#e2e5e2" stroke-width="1"/>
  <line x1="969" y1="289" x2="1383" y2="289" stroke="#e2e5e2" stroke-width="1"/>
  <path d="M1010.4 289.0 Q 1134.6 233.0 1349.88 269.0" fill="none" stroke="#d3d8d3" stroke-width="7"/>
  <path d="M1051.8 209.0 c -7 -9 -7 -15 0 -15 c 7 0 7 6 0 15 z" fill="#1a1a1a"/>
  <circle cx="1051.8" cy="199.5" r="2.6" fill="#ffffff"/>
  <rect x="1271" y="161" width="100" height="26" rx="4" fill="#ffffff" stroke="#d8d8d8" stroke-width="1"/>
  <text x="1321" y="178" font-family="Inter, Helvetica, Arial, sans-serif" font-size="11" font-weight="500" fill="#6b6b6b" text-anchor="middle">Leaflet</text>
  <rect x="969" y="365" width="414" height="44" rx="5" fill="#1a1a1a"/>
  <text x="1176.0" y="391.5" font-family="Inter, Helvetica, Arial, sans-serif" font-size="13" font-weight="600" fill="#ffffff" text-anchor="middle">Visit the club website</text>
  <text x="969" y="426" font-family="ui-monospace, SFMono-Regular, Menlo, monospace" font-size="10.5" font-weight="500" fill="#b4530a">url  (http/https only, validated server-side)</text>
  <rect x="952" y="456" width="448" height="196" rx="6" fill="#ffffff" stroke="#d8d8d8" stroke-width="1"/>
  <text x="984" y="494" font-family="Inter, Helvetica, Arial, sans-serif" font-size="12" font-weight="600" fill="#6b6b6b">At a glance</text>
  <text x="984" y="524" font-family="Inter, Helvetica, Arial, sans-serif" font-size="12" font-weight="400" fill="#6b6b6b">Billing</text>
  <text x="1368" y="524" font-family="Inter, Helvetica, Arial, sans-serif" font-size="12" font-weight="600" fill="#1a1a1a" text-anchor="end">Monthly</text>
  <text x="984" y="556" font-family="Inter, Helvetica, Arial, sans-serif" font-size="12" font-weight="400" fill="#6b6b6b">Currency</text>
  <text x="1368" y="556" font-family="Inter, Helvetica, Arial, sans-serif" font-size="12" font-weight="600" fill="#1a1a1a" text-anchor="end">USD</text>
  <text x="984" y="588" font-family="Inter, Helvetica, Arial, sans-serif" font-size="12" font-weight="400" fill="#6b6b6b">Category</text>
  <text x="1368" y="588" font-family="Inter, Helvetica, Arial, sans-serif" font-size="12" font-weight="600" fill="#1a1a1a" text-anchor="end">Postcard</text>
  <text x="984" y="620" font-family="Inter, Helvetica, Arial, sans-serif" font-size="12" font-weight="400" fill="#6b6b6b">Listed</text>
  <text x="1368" y="620" font-family="Inter, Helvetica, Arial, sans-serif" font-size="12" font-weight="600" fill="#1a1a1a" text-anchor="end">March 2026</text>
  <rect x="952" y="676" width="448" height="120" rx="6" fill="#ffffff" stroke="#d8d8d8" stroke-width="1"/>
  <text x="984" y="714" font-family="Inter, Helvetica, Arial, sans-serif" font-size="12.5" font-weight="600" fill="#1a1a1a">Is this listing wrong?</text>
  <text x="984" y="738" font-family="Inter, Helvetica, Arial, sans-serif" font-size="11.5" font-weight="400" fill="#6b6b6b">Out of date prices and dead links</text>
  <text x="984" y="756" font-family="Inter, Helvetica, Arial, sans-serif" font-size="11.5" font-weight="400" fill="#6b6b6b">are the main way a directory rots.</text>
  <text x="984" y="782" font-family="Inter, Helvetica, Arial, sans-serif" font-size="11.5" font-weight="600" fill="#b4530a">Report this listing</text>
  <text x="40" y="850" font-family="Inter, Helvetica, Arial, sans-serif" font-size="12" font-weight="600" fill="#1a1a1a">SEO note: this page is server-rendered by Astro, one URL per club</text>
  <text x="40" y="872" font-family="Inter, Helvetica, Arial, sans-serif" font-size="11.5" font-weight="400" fill="#6b6b6b">(/clubs/columbus-postcard-swap). That is what ranks for &quot;postcard club ohio&quot; -</text>
  <text x="40" y="892" font-family="Inter, Helvetica, Arial, sans-serif" font-size="11.5" font-weight="400" fill="#6b6b6b">a client-rendered page would serve Google an empty shell.</text>
  </g>
</svg>
